<svg width="28" height="27" viewBox="0 0 28 27" fill="none" xmlns="http://www.w3.org/2000/svg">
<path d="M13.5113 3.37495C15.6016 3.37495 17.6063 4.20464 19.0844 5.68149C20.5625 7.15833 21.3929 9.16137 21.3929 11.25V15.4845L23.4444 19.584C23.5388 19.7726 23.5834 19.9823 23.5739 20.1931C23.5644 20.4038 23.5012 20.6086 23.3901 20.7881C23.2791 20.9675 23.1241 21.1157 22.9396 21.2184C22.7552 21.3211 22.5476 21.375 22.3364 21.375H4.68614C4.475 21.375 4.26736 21.3211 4.08294 21.2184C3.89851 21.1157 3.74343 20.9675 3.63242 20.7881C3.52141 20.6086 3.45816 20.4038 3.44867 20.1931C3.43919 19.9823 3.48378 19.7726 3.57821 19.584L5.62968 15.4845V11.25C5.62968 9.16137 6.46006 7.15833 7.93815 5.68149C9.41624 4.20464 11.421 3.37495 13.5113 3.37495ZM13.5113 5.62495C12.0182 5.62495 10.5863 6.21758 9.53047 7.27248C8.4747 8.32737 7.88157 9.75811 7.88157 11.25V15.4845C7.88154 15.8336 7.80021 16.1779 7.64399 16.4902L6.32664 19.125H20.6971L19.3797 16.4902C19.2231 16.178 19.1414 15.8337 19.141 15.4845V11.25C19.141 9.75811 18.5479 8.32737 17.4921 7.27248C16.4363 6.21758 15.0044 5.62495 13.5113 5.62495ZM19.0059 2.6662C19.1939 2.43462 19.4663 2.28711 19.7632 2.2561C20.06 2.22509 20.357 2.31312 20.589 2.50083C21.8083 3.48637 22.8091 4.71466 23.5277 6.10758C23.6575 6.37208 23.6783 6.67693 23.5856 6.9566C23.4929 7.23627 23.2942 7.46845 23.032 7.60326C22.7698 7.73807 22.4652 7.76474 22.1835 7.67755C21.9019 7.59036 21.6657 7.39625 21.5257 7.13695C20.9504 6.0216 20.149 5.03812 19.1725 4.24908C18.9406 4.06135 18.7927 3.78928 18.7615 3.49267C18.7302 3.19606 18.8181 2.8992 19.0059 2.66733V2.6662ZM8.01668 2.6662C8.10981 2.78104 8.17939 2.9131 8.22142 3.05482C8.26345 3.19654 8.27712 3.34514 8.26164 3.49214C8.24617 3.63914 8.20185 3.78165 8.13122 3.91153C8.0606 4.04141 7.96505 4.15611 7.85004 4.24908C6.8775 5.0349 6.07854 6.01361 5.50358 7.12345C5.43822 7.2589 5.34635 7.37989 5.23339 7.47926C5.12043 7.57863 4.98869 7.65437 4.84593 7.70199C4.70318 7.74961 4.55232 7.76816 4.40227 7.75653C4.25223 7.7449 4.10603 7.70333 3.97234 7.63428C3.83864 7.56524 3.72016 7.47011 3.62389 7.35452C3.52762 7.23894 3.45552 7.10525 3.41185 6.96134C3.36818 6.81744 3.35382 6.66625 3.36963 6.51671C3.38545 6.36717 3.4311 6.22231 3.5039 6.0907C4.22172 4.70466 5.21927 3.48233 6.43361 2.50083C6.66567 2.31324 6.96278 2.22541 7.25964 2.25663C7.5565 2.28785 7.8288 2.43558 8.01668 2.66733V2.6662ZM10.1335 22.5H16.8891C16.8891 23.0967 16.6519 23.669 16.2296 24.0909C15.8072 24.5129 15.2345 24.75 14.6372 24.75H12.3853C11.7881 24.75 11.2153 24.5129 10.793 24.0909C10.3707 23.669 10.1335 23.0967 10.1335 22.5Z" fill="#4A4545"/>
</svg>
