<svg width="28" height="27" viewBox="0 0 28 27" fill="none" xmlns="http://www.w3.org/2000/svg">
<g clip-path="url(#clip0_2271_33650)">
<path d="M14.3283 8.25C11.4008 8.25 9.07385 10.575 9.07385 13.5C9.07385 16.425 11.4008 18.75 14.3283 18.75C17.2557 18.75 19.5827 16.425 19.5827 13.5C19.5827 10.575 17.2557 8.25 14.3283 8.25ZM14.3283 17.25C12.2265 17.25 10.5751 15.6 10.5751 13.5C10.5751 11.4 12.2265 9.75 14.3283 9.75C16.43 9.75 18.0814 11.4 18.0814 13.5C18.0814 15.6 16.43 17.25 14.3283 17.25Z" fill="#4A4545"/>
<path d="M25.3624 11.025L23.2606 10.35L22.8103 9.225L23.8611 7.275C24.0863 6.825 24.0113 6.225 23.636 5.85L21.8345 4.05C21.4591 3.675 20.8586 3.6 20.4083 3.825L18.4566 4.875L17.3307 4.425L16.6551 2.325C16.505 1.875 16.0546 1.5 15.5292 1.5H12.977C12.4516 1.5 12.0012 1.875 11.9262 2.4L11.2506 4.5C10.8002 4.575 10.4249 4.725 10.0496 4.95L8.09795 3.9C7.64757 3.675 7.04707 3.75 6.67175 4.125L4.87024 5.925C4.49493 6.3 4.41987 6.9 4.64505 7.35L5.62087 9.225C5.47075 9.6 5.32062 10.05 5.17049 10.425L3.06873 11.1C2.61836 11.25 2.24304 11.7 2.24304 12.225V14.775C2.24304 15.3 2.61836 15.75 3.1438 15.9L5.24556 16.575L5.69593 17.7L4.64505 19.65C4.41987 20.1 4.49493 20.7 4.87024 21.075L6.67175 22.875C7.04707 23.25 7.64757 23.325 8.09795 23.1L10.0496 22.05L11.1755 22.5L11.8511 24.675C12.0012 25.125 12.4516 25.5 12.977 25.5H15.5292C16.0546 25.5 16.505 25.125 16.6551 24.675L17.3307 22.5L18.4566 22.05L20.4083 23.1C20.8586 23.325 21.4591 23.25 21.8345 22.875L23.636 21.075C24.0113 20.7 24.0863 20.1 23.8611 19.65L22.8103 17.7L23.2606 16.575L25.4375 15.9C25.8878 15.75 26.2632 15.3 26.2632 14.775V12.225C26.2632 11.7 25.8878 11.175 25.3624 11.025ZM24.7619 14.55L22.0596 15.375L21.9846 15.75L21.309 17.325L21.0838 17.7L22.435 20.175L20.9337 21.675L18.4566 20.325L18.0813 20.55C17.5559 20.85 17.0304 21.075 16.505 21.225L16.1297 21.3L15.304 24H13.2022L12.3765 21.3L12.0012 21.225L10.4249 20.55L10.0496 20.325L7.57251 21.675L6.07125 20.175L7.42238 17.7L7.19719 17.325C6.89694 16.8 6.67175 16.275 6.52163 15.75L6.44656 15.375L3.7443 14.55V12.45L6.29644 11.7L6.44656 11.325C6.59669 10.725 6.82188 10.2 7.12213 9.675L7.34732 9.3L6.07125 6.825L7.57251 5.325L9.97452 6.675L10.3498 6.45C10.8753 6.15 11.4007 5.925 12.0012 5.775L12.3765 5.625L13.2022 3H15.304L16.1297 5.625L16.505 5.775C17.0304 5.925 17.5559 6.15 18.0813 6.45L18.4566 6.675L20.9337 5.325L22.435 6.825L21.0838 9.3L21.309 9.675C21.6093 10.2 21.8345 10.725 21.9846 11.25L22.0596 11.625L24.7619 12.45V14.55Z" fill="#4A4545"/>
</g>
<defs>
<clipPath id="clip0_2271_33650">
<rect width="27.0226" height="27" fill="white" transform="translate(0.741821)"/>
</clipPath>
</defs>
</svg>
