<svg width="201" height="57" viewBox="0 0 201 57" fill="none" xmlns="http://www.w3.org/2000/svg">
<rect width="201" height="57" rx="14" fill="#353342"/>
<path d="M39.494 36V22.59H44.228C45.116 22.59 45.896 22.758 46.568 23.094C47.24 23.43 47.762 23.91 48.134 24.534C48.518 25.158 48.71 25.89 48.71 26.73C48.71 27.678 48.47 28.482 47.99 29.142C47.51 29.802 46.862 30.276 46.046 30.564L49.16 36H47.108L43.832 30.186L45.002 30.87H41.258V36H39.494ZM41.258 29.25H44.282C44.81 29.25 45.272 29.148 45.668 28.944C46.064 28.74 46.37 28.446 46.586 28.062C46.814 27.678 46.928 27.234 46.928 26.73C46.928 26.214 46.814 25.77 46.586 25.398C46.37 25.014 46.064 24.72 45.668 24.516C45.272 24.312 44.81 24.21 44.282 24.21H41.258V29.25ZM54.887 36.216C53.951 36.216 53.117 35.994 52.385 35.55C51.653 35.106 51.077 34.5 50.657 33.732C50.237 32.952 50.027 32.082 50.027 31.122C50.027 30.15 50.231 29.286 50.639 28.53C51.059 27.774 51.623 27.18 52.331 26.748C53.051 26.304 53.855 26.082 54.743 26.082C55.463 26.082 56.099 26.214 56.651 26.478C57.215 26.73 57.689 27.078 58.073 27.522C58.469 27.954 58.769 28.452 58.973 29.016C59.189 29.568 59.297 30.144 59.297 30.744C59.297 30.876 59.285 31.026 59.261 31.194C59.249 31.35 59.231 31.5 59.207 31.644H51.251V30.204H58.235L57.443 30.852C57.551 30.228 57.491 29.67 57.263 29.178C57.035 28.686 56.699 28.296 56.255 28.008C55.811 27.72 55.307 27.576 54.743 27.576C54.179 27.576 53.663 27.72 53.195 28.008C52.727 28.296 52.361 28.71 52.097 29.25C51.845 29.778 51.743 30.408 51.791 31.14C51.743 31.848 51.851 32.472 52.115 33.012C52.391 33.54 52.775 33.954 53.267 34.254C53.771 34.542 54.317 34.686 54.905 34.686C55.553 34.686 56.099 34.536 56.543 34.236C56.987 33.936 57.347 33.552 57.623 33.084L59.027 33.804C58.835 34.248 58.535 34.656 58.127 35.028C57.731 35.388 57.257 35.676 56.705 35.892C56.165 36.108 55.559 36.216 54.887 36.216ZM64.2005 36.216C63.5645 36.216 63.0005 36.102 62.5085 35.874C62.0285 35.634 61.6505 35.31 61.3745 34.902C61.0985 34.482 60.9605 34.002 60.9605 33.462C60.9605 32.946 61.0685 32.484 61.2845 32.076C61.5125 31.656 61.8605 31.302 62.3285 31.014C62.8085 30.726 63.4085 30.522 64.1285 30.402L67.7285 29.808V31.212L64.5065 31.752C63.8825 31.86 63.4265 32.058 63.1385 32.346C62.8625 32.634 62.7245 32.988 62.7245 33.408C62.7245 33.804 62.8805 34.134 63.1925 34.398C63.5165 34.662 63.9185 34.794 64.3985 34.794C65.0105 34.794 65.5385 34.668 65.9825 34.416C66.4385 34.152 66.7925 33.798 67.0445 33.354C67.3085 32.91 67.4405 32.418 67.4405 31.878V29.412C67.4405 28.884 67.2425 28.458 66.8465 28.134C66.4625 27.798 65.9525 27.63 65.3165 27.63C64.7645 27.63 64.2725 27.774 63.8405 28.062C63.4205 28.338 63.1085 28.71 62.9045 29.178L61.4465 28.422C61.6265 27.978 61.9145 27.582 62.3105 27.234C62.7065 26.874 63.1685 26.592 63.6965 26.388C64.2245 26.184 64.7765 26.082 65.3525 26.082C66.0965 26.082 66.7505 26.226 67.3145 26.514C67.8785 26.79 68.3165 27.18 68.6285 27.684C68.9525 28.176 69.1145 28.752 69.1145 29.412V36H67.4765V34.164L67.7825 34.272C67.5785 34.656 67.3025 34.992 66.9545 35.28C66.6065 35.568 66.1985 35.796 65.7305 35.964C65.2625 36.132 64.7525 36.216 64.2005 36.216ZM76.1201 36.216C75.2081 36.216 74.3861 35.994 73.6541 35.55C72.9341 35.106 72.3641 34.5 71.9441 33.732C71.5241 32.964 71.3141 32.106 71.3141 31.158C71.3141 30.186 71.5241 29.322 71.9441 28.566C72.3641 27.798 72.9341 27.192 73.6541 26.748C74.3861 26.304 75.2081 26.082 76.1201 26.082C76.9241 26.082 77.6381 26.256 78.2621 26.604C78.8861 26.94 79.3781 27.396 79.7381 27.972L79.4681 28.386V22.374H81.1601V36H79.5221V33.93L79.7381 34.218C79.4021 34.854 78.9101 35.346 78.2621 35.694C77.6261 36.042 76.9121 36.216 76.1201 36.216ZM76.2641 34.596C76.8761 34.596 77.4221 34.446 77.9021 34.146C78.3821 33.846 78.7601 33.438 79.0361 32.922C79.3241 32.394 79.4681 31.806 79.4681 31.158C79.4681 30.498 79.3241 29.91 79.0361 29.394C78.7601 28.866 78.3821 28.452 77.9021 28.152C77.4221 27.852 76.8761 27.702 76.2641 27.702C75.6641 27.702 75.1181 27.858 74.6261 28.17C74.1461 28.47 73.7681 28.878 73.4921 29.394C73.2161 29.898 73.0781 30.486 73.0781 31.158C73.0781 31.806 73.2161 32.394 73.4921 32.922C73.7681 33.438 74.1461 33.846 74.6261 34.146C75.1061 34.446 75.6521 34.596 76.2641 34.596ZM86.8624 36V26.298H88.5004V28.278L88.2664 27.972C88.5064 27.36 88.8904 26.892 89.4184 26.568C89.9464 26.244 90.5404 26.082 91.2004 26.082C91.9564 26.082 92.6344 26.292 93.2344 26.712C93.8464 27.132 94.2664 27.684 94.4944 28.368L94.0264 28.386C94.2784 27.63 94.7044 27.06 95.3044 26.676C95.9044 26.28 96.5704 26.082 97.3024 26.082C97.9744 26.082 98.5804 26.238 99.1204 26.55C99.6724 26.862 100.11 27.294 100.434 27.846C100.758 28.398 100.92 29.022 100.92 29.718V36H99.2284V30.258C99.2284 29.718 99.1324 29.262 98.9404 28.89C98.7484 28.518 98.4844 28.23 98.1484 28.026C97.8244 27.81 97.4404 27.702 96.9964 27.702C96.5644 27.702 96.1744 27.81 95.8264 28.026C95.4904 28.23 95.2204 28.524 95.0164 28.908C94.8244 29.28 94.7284 29.73 94.7284 30.258V36H93.0364V30.258C93.0364 29.718 92.9404 29.262 92.7484 28.89C92.5564 28.518 92.2924 28.23 91.9564 28.026C91.6324 27.81 91.2484 27.702 90.8044 27.702C90.3724 27.702 89.9824 27.81 89.6344 28.026C89.2984 28.23 89.0284 28.524 88.8244 28.908C88.6324 29.28 88.5364 29.73 88.5364 30.258V36H86.8624ZM107.906 36.216C106.97 36.216 106.124 36 105.368 35.568C104.612 35.124 104.012 34.518 103.568 33.75C103.124 32.982 102.902 32.112 102.902 31.14C102.902 30.168 103.118 29.304 103.55 28.548C103.994 27.792 104.594 27.192 105.35 26.748C106.106 26.304 106.958 26.082 107.906 26.082C108.842 26.082 109.688 26.304 110.444 26.748C111.2 27.18 111.794 27.774 112.226 28.53C112.67 29.286 112.892 30.156 112.892 31.14C112.892 32.124 112.664 33 112.208 33.768C111.752 34.524 111.146 35.124 110.39 35.568C109.646 36 108.818 36.216 107.906 36.216ZM107.906 34.596C108.506 34.596 109.046 34.446 109.526 34.146C110.018 33.846 110.402 33.432 110.678 32.904C110.966 32.376 111.11 31.788 111.11 31.14C111.11 30.48 110.966 29.898 110.678 29.394C110.402 28.878 110.018 28.47 109.526 28.17C109.046 27.858 108.506 27.702 107.906 27.702C107.294 27.702 106.742 27.858 106.25 28.17C105.77 28.47 105.386 28.878 105.098 29.394C104.81 29.898 104.666 30.48 104.666 31.14C104.666 31.788 104.81 32.376 105.098 32.904C105.386 33.432 105.77 33.846 106.25 34.146C106.742 34.446 107.294 34.596 107.906 34.596ZM115.075 36V26.298H116.713V28.08L116.533 27.828C116.761 27.276 117.109 26.868 117.577 26.604C118.045 26.328 118.615 26.19 119.287 26.19H119.881V27.774H119.035C118.351 27.774 117.799 27.99 117.379 28.422C116.959 28.842 116.749 29.442 116.749 30.222V36H115.075ZM125.832 36.216C124.896 36.216 124.062 35.994 123.33 35.55C122.598 35.106 122.022 34.5 121.602 33.732C121.182 32.952 120.972 32.082 120.972 31.122C120.972 30.15 121.176 29.286 121.584 28.53C122.004 27.774 122.568 27.18 123.276 26.748C123.996 26.304 124.8 26.082 125.688 26.082C126.408 26.082 127.044 26.214 127.596 26.478C128.16 26.73 128.634 27.078 129.018 27.522C129.414 27.954 129.714 28.452 129.918 29.016C130.134 29.568 130.242 30.144 130.242 30.744C130.242 30.876 130.23 31.026 130.206 31.194C130.194 31.35 130.176 31.5 130.152 31.644H122.196V30.204H129.18L128.388 30.852C128.496 30.228 128.436 29.67 128.208 29.178C127.98 28.686 127.644 28.296 127.2 28.008C126.756 27.72 126.252 27.576 125.688 27.576C125.124 27.576 124.608 27.72 124.14 28.008C123.672 28.296 123.306 28.71 123.042 29.25C122.79 29.778 122.688 30.408 122.736 31.14C122.688 31.848 122.796 32.472 123.06 33.012C123.336 33.54 123.72 33.954 124.212 34.254C124.716 34.542 125.262 34.686 125.85 34.686C126.498 34.686 127.044 34.536 127.488 34.236C127.932 33.936 128.292 33.552 128.568 33.084L129.972 33.804C129.78 34.248 129.48 34.656 129.072 35.028C128.676 35.388 128.202 35.676 127.65 35.892C127.11 36.108 126.504 36.216 125.832 36.216Z" fill="#FEF6E4"/>
<path d="M163.696 29.3821C164.093 28.9978 164.102 28.3647 163.718 27.9681L157.454 21.5055C157.07 21.1089 156.437 21.099 156.04 21.4834C155.644 21.8678 155.634 22.5008 156.018 22.8974L161.586 28.642L155.841 34.2098C155.445 34.5941 155.435 35.2272 155.819 35.6238C156.204 36.0204 156.837 36.0303 157.233 35.6459L163.696 29.3821ZM141.984 29.3358L162.984 29.6639L163.016 27.6642L142.016 27.3361L141.984 29.3358Z" fill="#FFD803"/>
</svg>
