<svg width="13" height="13" viewBox="0 0 13 13" fill="none" xmlns="http://www.w3.org/2000/svg">
<path d="M6.59605 7.91813L1.95692 12.5573C1.78335 12.7308 1.56243 12.8176 1.29419 12.8176C1.02594 12.8176 0.805026 12.7308 0.631453 12.5573C0.45788 12.3837 0.371094 12.1628 0.371094 11.8945C0.371094 11.6263 0.45788 11.4054 0.631453 11.2318L5.27058 6.59266L0.631453 1.95353C0.45788 1.77996 0.371094 1.55905 0.371094 1.2908C0.371094 1.02255 0.45788 0.801638 0.631453 0.628065C0.805026 0.454492 1.02594 0.367706 1.29419 0.367706C1.56243 0.367706 1.78335 0.454492 1.95692 0.628065L6.59605 5.2672L11.2352 0.628065C11.4088 0.454492 11.6297 0.367706 11.8979 0.367706C12.1662 0.367706 12.3871 0.454492 12.5606 0.628065C12.7342 0.801638 12.821 1.02255 12.821 1.2908C12.821 1.55905 12.7342 1.77996 12.5606 1.95353L7.92151 6.59266L12.5606 11.2318C12.7342 11.4054 12.821 11.6263 12.821 11.8945C12.821 12.1628 12.7342 12.3837 12.5606 12.5573C12.3871 12.7308 12.1662 12.8176 11.8979 12.8176C11.6297 12.8176 11.4088 12.7308 11.2352 12.5573L6.59605 7.91813Z" fill="#FFD803"/>
</svg>
