<svg width="28" height="42" viewBox="0 0 28 42" fill="none" xmlns="http://www.w3.org/2000/svg">
<path d="M5.25 0.029541C2.49219 0.029541 0.25 2.32778 0.25 5.15454V35.9045C0.25 38.7313 2.49219 41.0295 5.25 41.0295H22.75C25.5078 41.0295 27.75 38.7313 27.75 35.9045V5.15454C27.75 2.32778 25.5078 0.029541 22.75 0.029541H5.25ZM11.5 34.6233H16.5C17.1875 34.6233 17.75 35.1999 17.75 35.9045C17.75 36.6092 17.1875 37.1858 16.5 37.1858H11.5C10.8125 37.1858 10.25 36.6092 10.25 35.9045C10.25 35.1999 10.8125 34.6233 11.5 34.6233Z" fill="black"/>
</svg>
