<svg width="41" height="42" viewBox="0 0 41 42" fill="none" xmlns="http://www.w3.org/2000/svg">
<path d="M35.8752 5.15454H5.12516C3.246 5.15454 1.7085 6.69204 1.7085 8.57121V32.4879C1.7085 34.367 3.246 35.9045 5.12516 35.9045H35.8752C37.7543 35.9045 39.2918 34.367 39.2918 32.4879V8.57121C39.2918 6.69204 37.7543 5.15454 35.8752 5.15454ZM34.1668 32.4879H22.2085C21.2689 32.4879 20.5002 31.7191 20.5002 30.7795V23.9462C20.5002 23.0066 21.2689 22.2379 22.2085 22.2379H34.1668C35.1064 22.2379 35.8752 23.0066 35.8752 23.9462V30.7795C35.8752 31.7191 35.1064 32.4879 34.1668 32.4879Z" fill="black"/>
</svg>
