<svg width="70" height="38" viewBox="0 0 70 38" fill="none" xmlns="http://www.w3.org/2000/svg">
<path d="M11.6382 20.5996C11.6382 21.4427 11.5015 22.2402 11.228 22.9922C10.9546 23.7441 10.5615 24.4049 10.0488 24.9746C9.54753 25.5329 8.93799 25.9772 8.22021 26.3076C7.50244 26.6494 6.70492 26.8203 5.82764 26.8203C5.0529 26.8203 4.33512 26.695 3.67432 26.4443C3.0249 26.2051 2.46094 25.8633 1.98242 25.4189C1.50391 24.9746 1.12793 24.4334 0.854492 23.7954C0.592448 23.1574 0.461426 22.4453 0.461426 21.6592C0.461426 21.4997 0.467122 21.3003 0.478516 21.061C0.489909 20.8218 0.524089 20.5939 0.581055 20.3774C0.649414 20.1496 0.74056 19.9616 0.854492 19.8135C0.979818 19.654 1.15641 19.5742 1.38428 19.5742C1.56657 19.5742 1.76595 19.6141 1.98242 19.6938C2.21029 19.7622 2.42106 19.859 2.61475 19.9844C2.80843 20.1097 2.96794 20.2635 3.09326 20.4458C3.22998 20.6167 3.29834 20.8047 3.29834 21.0098V22.001C3.29834 22.7871 3.50911 23.4308 3.93066 23.9321C4.36361 24.422 4.98454 24.667 5.79346 24.667C6.36312 24.667 6.85303 24.536 7.26318 24.2739C7.67334 24.0119 8.00374 23.6758 8.25439 23.2656C8.51644 22.8555 8.70443 22.3997 8.81836 21.8984C8.94368 21.3857 9.00635 20.8844 9.00635 20.3945C9.00635 19.4375 8.80697 18.509 8.4082 17.6089C8.02083 16.7088 7.53092 15.8315 6.93848 14.9771C6.34603 14.1112 5.70231 13.2624 5.00732 12.4307C4.31234 11.599 3.66862 10.7729 3.07617 9.95264C2.48372 9.13232 1.98812 8.31201 1.58936 7.4917C1.20199 6.67139 1.0083 5.83398 1.0083 4.97949C1.0083 4.28451 1.14502 3.68636 1.41846 3.18506C1.70329 2.67236 2.07357 2.25651 2.5293 1.9375C2.99642 1.6071 3.52051 1.36784 4.10156 1.21973C4.69401 1.06022 5.30355 0.980469 5.93018 0.980469C6.69352 0.980469 7.37712 1.0887 7.98096 1.30518C8.5848 1.52165 9.09749 1.83496 9.51904 2.24512C9.94059 2.65527 10.2596 3.16227 10.4761 3.76611C10.7039 4.35856 10.8179 5.03646 10.8179 5.7998C10.8179 5.91374 10.8122 6.05615 10.8008 6.22705C10.7894 6.39795 10.7609 6.56885 10.7153 6.73975C10.6698 6.89925 10.6014 7.04167 10.5103 7.16699C10.4191 7.28092 10.2938 7.33789 10.1343 7.33789C9.90641 7.33789 9.67855 7.28092 9.45068 7.16699C9.257 7.06445 9.09749 6.96761 8.97217 6.87646C8.85824 6.77393 8.76709 6.66569 8.69873 6.55176C8.63037 6.42643 8.5791 6.28971 8.54492 6.1416C8.51074 5.99349 8.48226 5.8112 8.45947 5.59473C8.40251 5.18457 8.32845 4.81429 8.2373 4.48389C8.14616 4.15348 8.00944 3.87435 7.82715 3.64648C7.64486 3.41862 7.4056 3.24202 7.10938 3.1167C6.81315 2.99137 6.43148 2.92871 5.96436 2.92871C5.63395 2.92871 5.31494 2.96289 5.00732 3.03125C4.7111 3.09961 4.44906 3.21354 4.22119 3.37305C4.00472 3.53255 3.82812 3.74333 3.69141 4.00537C3.56608 4.25602 3.50342 4.56934 3.50342 4.94531C3.50342 5.4694 3.61735 6.00488 3.84521 6.55176C4.08447 7.09863 4.39209 7.6569 4.76807 8.22656C5.15544 8.79622 5.58838 9.38298 6.06689 9.98682C6.5568 10.5793 7.05811 11.1945 7.5708 11.8325C8.0835 12.4705 8.5791 13.1313 9.05762 13.8149C9.54753 14.4871 9.98047 15.1878 10.3564 15.917C10.7438 16.6462 11.0514 17.4038 11.2793 18.1899C11.5186 18.9647 11.6382 19.7679 11.6382 20.5996ZM16.3037 25.5728C16.3037 25.6981 16.2752 25.8063 16.2183 25.8975C16.1613 25.9772 16.0872 26.0399 15.9961 26.0854C15.9163 26.131 15.8252 26.1595 15.7227 26.1709C15.6315 26.1937 15.5404 26.2051 15.4492 26.2051C15.3239 26.2051 15.1758 26.188 15.0049 26.1538C14.8454 26.131 14.6859 26.0911 14.5264 26.0342C14.3669 25.9772 14.2188 25.9089 14.082 25.8291C13.9567 25.738 13.8599 25.6297 13.7915 25.5044C13.7231 25.3905 13.6605 25.1797 13.6035 24.8721C13.5579 24.5531 13.5181 24.1885 13.4839 23.7783C13.4497 23.3568 13.4212 22.9124 13.3984 22.4453C13.3757 21.9668 13.3529 21.5111 13.3301 21.0781C13.3187 20.6452 13.3073 20.2578 13.2959 19.916C13.2959 19.5628 13.2959 19.3008 13.2959 19.1299C13.2959 18.3324 13.3073 17.5633 13.3301 16.8228C13.3643 16.0708 13.3984 15.3018 13.4326 14.5156C13.3757 14.5156 13.3187 14.5213 13.2617 14.5327C13.2048 14.5441 13.1478 14.5498 13.0908 14.5498C12.9427 14.5726 12.7889 14.5897 12.6294 14.6011C12.4813 14.6125 12.3275 14.6182 12.168 14.6182C11.9743 14.6182 11.8034 14.584 11.6553 14.5156C11.5072 14.4473 11.4331 14.2935 11.4331 14.0542C11.4331 13.7694 11.4958 13.5415 11.6211 13.3706C11.7464 13.1997 11.9059 13.0687 12.0996 12.9775C12.2933 12.875 12.5041 12.8066 12.7319 12.7725C12.9598 12.7269 13.182 12.6927 13.3984 12.6699C13.4326 12.6699 13.4554 12.6699 13.4668 12.6699C13.4782 12.6585 13.501 12.6528 13.5352 12.6528C13.5465 12.5161 13.5579 12.3509 13.5693 12.1572C13.5807 11.9521 13.5921 11.73 13.6035 11.4907C13.6149 11.1147 13.632 10.716 13.6548 10.2944C13.6776 9.86149 13.7004 9.45133 13.7231 9.06396C13.7459 8.6652 13.7744 8.31771 13.8086 8.02148C13.8428 7.71387 13.877 7.4974 13.9111 7.37207C13.9681 7.22396 14.0308 7.10433 14.0991 7.01318C14.1789 6.92204 14.3213 6.87646 14.5264 6.87646C14.9821 6.87646 15.3353 7.02458 15.5859 7.3208C15.8366 7.61702 15.9619 7.98161 15.9619 8.41455C15.9619 8.91585 15.9448 9.41715 15.9106 9.91846C15.8879 10.4198 15.8651 10.9268 15.8423 11.4395L15.791 12.311C16.0758 12.2769 16.3607 12.2256 16.6455 12.1572C16.9189 12.1003 17.1924 12.049 17.4658 12.0034C17.7507 11.9578 18.0241 11.9351 18.2861 11.9351C18.514 11.9351 18.6906 11.9977 18.8159 12.123C18.9412 12.237 19.0039 12.4079 19.0039 12.6357C19.0039 12.8864 18.9583 13.1313 18.8672 13.3706C18.776 13.6099 18.6165 13.7922 18.3887 13.9175H18.4058C18.3602 13.9403 18.2235 13.9744 17.9956 14.02C17.7677 14.0542 17.5057 14.0884 17.2095 14.1226C16.9246 14.1567 16.6398 14.1909 16.355 14.2251C16.0815 14.2593 15.8765 14.2821 15.7397 14.2935H15.7227C15.6999 14.9315 15.6828 15.5638 15.6714 16.1904C15.66 16.8057 15.6543 17.4323 15.6543 18.0703C15.6543 18.9476 15.6771 19.8818 15.7227 20.873C15.7796 21.8529 15.8708 22.7871 15.9961 23.6758L16.1328 24.4448C16.1784 24.6385 16.2183 24.8322 16.2524 25.0259C16.2866 25.2082 16.3037 25.3905 16.3037 25.5728ZM26.0107 27.1621C26.0107 27.6292 25.9937 28.1191 25.9595 28.6318C25.9253 29.1445 25.8683 29.6572 25.7886 30.1699C25.7088 30.694 25.6006 31.2067 25.4639 31.708C25.3271 32.2093 25.1562 32.6764 24.9512 33.1094C24.6094 33.7474 24.1764 34.3057 23.6523 34.7842C23.1396 35.2741 22.5757 35.6842 21.9604 36.0146C21.3452 36.3451 20.6901 36.5957 19.9951 36.7666C19.3001 36.9375 18.5994 37.0229 17.8931 37.0229C17.7905 37.0229 17.6709 37.0173 17.5342 37.0059C17.3861 36.9945 17.2437 36.966 17.1069 36.9204C16.9702 36.8862 16.8563 36.8236 16.7651 36.7324C16.674 36.6413 16.6284 36.516 16.6284 36.3564C16.6284 36.2881 16.6455 36.2197 16.6797 36.1514C16.6797 36.1286 16.6854 36.1058 16.6968 36.083C16.6968 36.0716 16.6968 36.0602 16.6968 36.0488C16.7765 35.821 16.8677 35.6387 16.9702 35.502C17.0728 35.3652 17.1924 35.257 17.3291 35.1772C17.4544 35.1089 17.6082 35.0576 17.7905 35.0234C17.9614 35.0007 18.1608 34.9779 18.3887 34.9551C19.1178 34.9209 19.8071 34.75 20.4565 34.4424V34.4595C21.1971 34.0949 21.7782 33.6392 22.1997 33.0923C22.6326 32.5568 22.9574 31.9587 23.1738 31.2979C23.4017 30.6484 23.5441 29.9591 23.6011 29.23C23.658 28.5008 23.6865 27.766 23.6865 27.0254C23.6865 26.8545 23.6865 26.7292 23.6865 26.6494C23.6865 26.5697 23.6865 26.4956 23.6865 26.4272C23.6865 26.3703 23.6865 26.3019 23.6865 26.2222C23.6865 26.1424 23.6808 26.0171 23.6694 25.8462C23.2707 26.1538 22.8548 26.3076 22.4219 26.3076C21.9206 26.3076 21.4933 26.1709 21.1401 25.8975C20.7983 25.6126 20.5078 25.248 20.2686 24.8037C20.0407 24.348 19.8584 23.8353 19.7217 23.2656C19.5964 22.6846 19.4995 22.0978 19.4312 21.5054C19.3742 20.9015 19.3343 20.3148 19.3115 19.7451C19.3001 19.1755 19.2944 18.6685 19.2944 18.2241V17.5063C19.2944 16.9025 19.2944 16.3101 19.2944 15.729C19.3058 15.1479 19.3286 14.5669 19.3628 13.9858V13.7295C19.3628 13.5928 19.3628 13.4561 19.3628 13.3193C19.3628 13.1826 19.3742 13.0516 19.397 12.9263C19.4425 12.744 19.5052 12.613 19.585 12.5332C19.6761 12.4535 19.8185 12.4136 20.0122 12.4136C20.1034 12.4136 20.1888 12.4193 20.2686 12.4307C20.3597 12.4421 20.4508 12.4591 20.542 12.4819C20.7585 12.5731 20.9294 12.6699 21.0547 12.7725C21.18 12.8636 21.2712 12.9775 21.3281 13.1143C21.3965 13.2396 21.4364 13.3877 21.4478 13.5586C21.4705 13.7295 21.4819 13.9289 21.4819 14.1567V16.4468C21.4819 16.7202 21.4819 17.062 21.4819 17.4722C21.4933 17.8709 21.5104 18.3096 21.5332 18.7881C21.556 19.2666 21.5845 19.7622 21.6187 20.2749C21.6528 20.7876 21.7041 21.2832 21.7725 21.7617C21.8408 22.2402 21.9206 22.6789 22.0117 23.0776C22.1029 23.4764 22.2168 23.8068 22.3535 24.0688C22.5586 23.6245 22.7352 23.1061 22.8833 22.5137C23.0314 21.9098 23.151 21.2661 23.2422 20.5825C23.3447 19.8875 23.4188 19.1755 23.4644 18.4463C23.5213 17.7171 23.5612 17.005 23.584 16.3101C23.6182 15.6151 23.6353 14.96 23.6353 14.3447C23.6466 13.7181 23.6523 13.1712 23.6523 12.7041C23.6523 12.5902 23.6523 12.4705 23.6523 12.3452C23.6637 12.2085 23.6922 12.0889 23.7378 11.9863C23.7834 11.8724 23.846 11.7812 23.9258 11.7129C24.0169 11.6445 24.1479 11.6104 24.3188 11.6104C24.3986 11.6104 24.484 11.6217 24.5752 11.6445C24.6777 11.6673 24.7632 11.6901 24.8315 11.7129C24.8543 11.7129 24.8771 11.7186 24.8999 11.73C24.9341 11.73 24.9626 11.73 24.9854 11.73C25.1449 11.7869 25.2987 11.8439 25.4468 11.9009C25.5949 11.9578 25.7202 12.0319 25.8228 12.123C25.9367 12.2028 26.0221 12.311 26.0791 12.4478C26.1475 12.5845 26.1816 12.7611 26.1816 12.9775C26.1816 13.2396 26.1759 13.5415 26.1646 13.8833C26.1646 14.2137 26.1532 14.5612 26.1304 14.9258C26.119 15.2904 26.1019 15.6493 26.0791 16.0024C26.0563 16.3442 26.0335 16.6519 26.0107 16.9253L25.9424 17.5234C25.9196 17.6829 25.9025 17.8424 25.8911 18.002C25.8797 18.1615 25.874 18.3096 25.874 18.4463C25.874 19.1755 25.8797 19.9046 25.8911 20.6338C25.9025 21.3516 25.9196 22.075 25.9424 22.8042C25.9652 23.5334 25.9823 24.2625 25.9937 24.9917C26.005 25.7095 26.0107 26.4329 26.0107 27.1621ZM32.146 26.4956C32.146 26.6551 32.1061 26.7861 32.0264 26.8887C31.9466 26.9912 31.8441 27.071 31.7188 27.1279C31.6048 27.1963 31.4738 27.2419 31.3257 27.2646C31.189 27.2988 31.0636 27.3159 30.9497 27.3159C30.5509 27.3159 30.2035 27.202 29.9072 26.9741C29.611 26.7463 29.3547 26.45 29.1382 26.0854C28.9217 25.7323 28.7451 25.3278 28.6084 24.8721C28.4717 24.4049 28.3577 23.9435 28.2666 23.4878C28.1755 23.0207 28.1071 22.5763 28.0615 22.1548C28.016 21.7218 27.9818 21.3516 27.959 21.0439C27.8564 19.9844 27.7824 18.9077 27.7368 17.814C27.7026 16.7202 27.6855 15.6379 27.6855 14.5669C27.6855 11.6388 27.7881 8.73926 27.9932 5.86816C27.9932 5.82259 27.9932 5.77132 27.9932 5.71436C28.0046 5.65739 28.0103 5.60042 28.0103 5.54346C28.0216 5.3042 28.033 5.03076 28.0444 4.72314C28.0558 4.40413 28.0729 4.09082 28.0957 3.7832C28.1185 3.47559 28.1413 3.19645 28.1641 2.9458C28.1982 2.68376 28.2381 2.50146 28.2837 2.39893V2.41602C28.3293 2.25651 28.3919 2.13688 28.4717 2.05713C28.5514 1.97738 28.6882 1.9375 28.8818 1.9375C29.292 1.9375 29.6395 2.07422 29.9243 2.34766C30.2091 2.62109 30.3516 2.96289 30.3516 3.37305C30.3516 3.46419 30.3459 3.55534 30.3345 3.64648C30.3345 3.72624 30.3288 3.80599 30.3174 3.88574C30.306 3.96549 30.2946 4.04525 30.2832 4.125C30.2832 4.19336 30.2832 4.25602 30.2832 4.31299C30.249 4.75732 30.2205 5.20166 30.1978 5.646C30.1864 6.07894 30.1693 6.51758 30.1465 6.96191C30.0895 7.94173 30.0439 8.92155 30.0098 9.90137C29.987 10.8698 29.9756 11.8496 29.9756 12.8408C29.9756 13.2624 29.9813 13.8149 29.9927 14.4985C30.0041 15.1821 30.0269 15.9284 30.061 16.7373C30.0952 17.5348 30.1408 18.3608 30.1978 19.2153C30.2661 20.0698 30.3516 20.8844 30.4541 21.6592C30.5566 22.4339 30.6763 23.1346 30.813 23.7612C30.9611 24.3879 31.132 24.8721 31.3257 25.2139C31.4282 25.2594 31.5251 25.3335 31.6162 25.436C31.7188 25.5272 31.8042 25.6354 31.8726 25.7607C31.9523 25.8747 32.015 25.9943 32.0605 26.1196C32.1175 26.2563 32.146 26.3817 32.146 26.4956ZM39.0332 22.8726C39.0332 23.2144 38.9364 23.5675 38.7427 23.9321C38.5604 24.2967 38.3211 24.6328 38.0249 24.9404C37.7287 25.2367 37.3869 25.4816 36.9995 25.6753C36.6235 25.869 36.2476 25.9658 35.8716 25.9658C35.3361 25.9658 34.8747 25.8633 34.4873 25.6582C34.0999 25.4417 33.7638 25.1569 33.479 24.8037C33.1942 24.4391 32.9606 24.029 32.7783 23.5732C32.6074 23.1175 32.4707 22.6504 32.3682 22.1719C32.2656 21.682 32.1916 21.1978 32.146 20.7192C32.1118 20.2293 32.0947 19.785 32.0947 19.3862C32.0947 19.0444 32.1118 18.64 32.146 18.1729C32.1916 17.7057 32.2599 17.2215 32.3511 16.7202C32.4536 16.2189 32.5903 15.7233 32.7612 15.2334C32.9321 14.7435 33.1429 14.3049 33.3936 13.9175C33.6556 13.5301 33.9632 13.2168 34.3164 12.9775C34.681 12.7383 35.0968 12.6187 35.564 12.6187C35.9285 12.6187 36.2533 12.6927 36.5381 12.8408C36.8343 12.9889 37.0793 13.1883 37.2729 13.439C37.478 13.6782 37.6318 13.9574 37.7344 14.2764C37.8483 14.5954 37.9053 14.9258 37.9053 15.2676C37.9053 15.7119 37.8027 16.1961 37.5977 16.7202C37.3926 17.2443 37.1248 17.7513 36.7944 18.2412C36.4754 18.7311 36.1108 19.1755 35.7007 19.5742C35.3019 19.9616 34.9032 20.2578 34.5044 20.4629C34.5272 20.668 34.5728 20.9699 34.6411 21.3687C34.7095 21.756 34.8006 22.1434 34.9146 22.5308C35.0399 22.9181 35.1823 23.2542 35.3418 23.5391C35.5127 23.8239 35.7121 23.9663 35.9399 23.9663C36.0539 23.9663 36.1507 23.9321 36.2305 23.8638C36.3216 23.7954 36.4014 23.7043 36.4697 23.5903C36.5381 23.4764 36.5951 23.3511 36.6406 23.2144C36.6976 23.0776 36.7489 22.9466 36.7944 22.8213L36.897 22.582C36.9198 22.5479 36.9312 22.5251 36.9312 22.5137C36.9425 22.5023 36.9539 22.4852 36.9653 22.4624C37.0451 22.3143 37.1191 22.1776 37.1875 22.0522C37.2673 21.9269 37.3755 21.8187 37.5122 21.7275H37.4951C37.5407 21.682 37.5863 21.6592 37.6318 21.6592C37.6888 21.6478 37.7401 21.6421 37.7856 21.6421C37.911 21.6421 38.0477 21.682 38.1958 21.7617C38.3439 21.8415 38.4806 21.944 38.606 22.0693C38.7313 22.1833 38.8338 22.3143 38.9136 22.4624C38.9933 22.5991 39.0332 22.7358 39.0332 22.8726ZM35.6494 15.3359C35.6494 15.222 35.6437 15.1024 35.6323 14.9771C35.6209 14.8517 35.5924 14.7435 35.5469 14.6523C35.3874 14.846 35.245 15.0796 35.1196 15.353C35.0057 15.6151 34.9089 15.8942 34.8291 16.1904C34.7493 16.4753 34.681 16.7658 34.624 17.062C34.5785 17.3582 34.5443 17.6317 34.5215 17.8823C34.8177 17.5291 35.0798 17.1304 35.3076 16.686C35.5355 16.2303 35.6494 15.7803 35.6494 15.3359ZM42.1948 21.5566C42.1948 22.1035 42.1891 22.6048 42.1777 23.0605C42.1777 23.5163 42.1891 24.0176 42.2119 24.5645L42.5195 24.3423L42.7075 24.2227C43.2658 23.7783 43.75 23.2371 44.1602 22.5991C44.5817 21.9497 44.9292 21.2604 45.2026 20.5312C45.4761 19.8021 45.6755 19.0558 45.8008 18.2925C45.9375 17.5177 46.0059 16.7829 46.0059 16.0879C46.0059 15.9512 46.0002 15.7632 45.9888 15.5239C45.9888 15.2733 45.966 15.0283 45.9204 14.7891C45.8748 14.5498 45.8065 14.3447 45.7153 14.1738C45.6242 13.9915 45.4932 13.9004 45.3223 13.9004C45.0488 13.9004 44.7697 14.0656 44.4849 14.396C44.2 14.7264 43.9323 15.1195 43.6816 15.5752C43.4424 16.0309 43.2259 16.4924 43.0322 16.9595C42.8385 17.4152 42.6961 17.7741 42.605 18.0361C42.605 18.0475 42.5993 18.0532 42.5879 18.0532C42.5879 18.0532 42.5879 18.0589 42.5879 18.0703V18.0874C42.5195 18.2469 42.4455 18.4178 42.3657 18.6001C42.2974 18.7824 42.2518 18.9533 42.229 19.1128C42.2062 19.2723 42.1891 19.4546 42.1777 19.6597C42.1663 19.8534 42.1606 20.0584 42.1606 20.2749C42.1606 20.3888 42.1606 20.5028 42.1606 20.6167C42.172 20.7192 42.1777 20.8161 42.1777 20.9072C42.1777 21.0326 42.1777 21.1522 42.1777 21.2661C42.1891 21.3687 42.1948 21.4655 42.1948 21.5566ZM43.1348 37.1768C43.1348 37.4274 43.0664 37.5983 42.9297 37.6895C42.793 37.7806 42.6107 37.8262 42.3828 37.8262C42.1094 37.8262 41.8075 37.7806 41.4771 37.6895C41.1466 37.6097 40.8846 37.4559 40.6909 37.228C40.634 37.1483 40.577 36.9147 40.52 36.5273C40.4744 36.14 40.4289 35.6842 40.3833 35.1602C40.3377 34.6475 40.2979 34.112 40.2637 33.5537C40.2295 33.0068 40.1953 32.5226 40.1611 32.1011L40.0928 31.1953C39.9561 28.7572 39.8877 26.319 39.8877 23.8809C39.8877 22.4567 39.9105 21.061 39.9561 19.6938C40.013 18.3153 40.07 16.9196 40.127 15.5068L40.1953 13.7124C40.1953 13.5301 40.1953 13.3535 40.1953 13.1826C40.2067 13.0003 40.2295 12.8237 40.2637 12.6528C40.3206 12.5047 40.389 12.3908 40.4688 12.311C40.5599 12.2199 40.7023 12.1743 40.896 12.1743C41.3859 12.1743 41.7448 12.3224 41.9727 12.6187C42.2005 12.9035 42.3315 13.2567 42.3657 13.6782C42.7303 13.1769 43.1632 12.7782 43.6646 12.4819C44.1772 12.1857 44.764 12.0376 45.4248 12.0376C45.9831 12.0376 46.4502 12.1629 46.8262 12.4136C47.2135 12.6642 47.5212 12.9889 47.749 13.3877C47.9769 13.7751 48.1364 14.2137 48.2275 14.7036C48.3301 15.1821 48.3813 15.6549 48.3813 16.1221C48.3813 17.0221 48.3016 17.9222 48.1421 18.8223C47.9826 19.7109 47.7319 20.5768 47.3901 21.4199C47.0597 22.2516 46.6382 23.0435 46.1255 23.7954C45.6128 24.536 45.009 25.1968 44.314 25.7778C44.2228 25.8576 44.1146 25.943 43.9893 26.0342C43.8639 26.1253 43.7329 26.2108 43.5962 26.2905C43.4595 26.3703 43.3171 26.4386 43.1689 26.4956C43.0322 26.5526 42.9069 26.5811 42.793 26.5811C42.6676 26.5811 42.5594 26.5526 42.4683 26.4956C42.3771 26.4386 42.2974 26.3703 42.229 26.2905C42.2518 27.0767 42.2803 27.8913 42.3145 28.7344C42.36 29.5775 42.4113 30.4206 42.4683 31.2637C42.5252 32.1182 42.5936 32.9613 42.6733 33.793C42.7645 34.6247 42.8727 35.4279 42.998 36.2026C43.0322 36.3507 43.0607 36.5046 43.0835 36.6641C43.1177 36.835 43.1348 37.0059 43.1348 37.1768ZM53.7476 26.4956C53.7476 26.6551 53.7077 26.7861 53.6279 26.8887C53.5482 26.9912 53.4456 27.071 53.3203 27.1279C53.2064 27.1963 53.0754 27.2419 52.9272 27.2646C52.7905 27.2988 52.6652 27.3159 52.5513 27.3159C52.1525 27.3159 51.805 27.202 51.5088 26.9741C51.2126 26.7463 50.9562 26.45 50.7397 26.0854C50.5233 25.7323 50.3467 25.3278 50.21 24.8721C50.0732 24.4049 49.9593 23.9435 49.8682 23.4878C49.777 23.0207 49.7087 22.5763 49.6631 22.1548C49.6175 21.7218 49.5833 21.3516 49.5605 21.0439C49.458 19.9844 49.384 18.9077 49.3384 17.814C49.3042 16.7202 49.2871 15.6379 49.2871 14.5669C49.2871 11.6388 49.3896 8.73926 49.5947 5.86816C49.5947 5.82259 49.5947 5.77132 49.5947 5.71436C49.6061 5.65739 49.6118 5.60042 49.6118 5.54346C49.6232 5.3042 49.6346 5.03076 49.646 4.72314C49.6574 4.40413 49.6745 4.09082 49.6973 3.7832C49.7201 3.47559 49.7428 3.19645 49.7656 2.9458C49.7998 2.68376 49.8397 2.50146 49.8853 2.39893V2.41602C49.9308 2.25651 49.9935 2.13688 50.0732 2.05713C50.153 1.97738 50.2897 1.9375 50.4834 1.9375C50.8936 1.9375 51.241 2.07422 51.5259 2.34766C51.8107 2.62109 51.9531 2.96289 51.9531 3.37305C51.9531 3.46419 51.9474 3.55534 51.936 3.64648C51.936 3.72624 51.9303 3.80599 51.9189 3.88574C51.9076 3.96549 51.8962 4.04525 51.8848 4.125C51.8848 4.19336 51.8848 4.25602 51.8848 4.31299C51.8506 4.75732 51.8221 5.20166 51.7993 5.646C51.7879 6.07894 51.7708 6.51758 51.748 6.96191C51.6911 7.94173 51.6455 8.92155 51.6113 9.90137C51.5885 10.8698 51.5771 11.8496 51.5771 12.8408C51.5771 13.2624 51.5828 13.8149 51.5942 14.4985C51.6056 15.1821 51.6284 15.9284 51.6626 16.7373C51.6968 17.5348 51.7424 18.3608 51.7993 19.2153C51.8677 20.0698 51.9531 20.8844 52.0557 21.6592C52.1582 22.4339 52.2778 23.1346 52.4146 23.7612C52.5627 24.3879 52.7336 24.8721 52.9272 25.2139C53.0298 25.2594 53.1266 25.3335 53.2178 25.436C53.3203 25.5272 53.4058 25.6354 53.4741 25.7607C53.5539 25.8747 53.6165 25.9943 53.6621 26.1196C53.7191 26.2563 53.7476 26.3817 53.7476 26.4956ZM61.4209 14.7207C61.4209 14.8346 61.4095 14.9543 61.3867 15.0796C61.3639 15.2049 61.3411 15.3188 61.3184 15.4214C61.2956 15.5467 61.2728 15.6663 61.25 15.7803C61.2272 15.8828 61.2158 15.9854 61.2158 16.0879C61.2158 17.1475 61.2329 18.2127 61.2671 19.2837C61.3127 20.3433 61.4266 21.4085 61.6089 22.4795C61.6659 22.8896 61.7342 23.2884 61.814 23.6758C61.8937 24.0632 61.9849 24.4562 62.0874 24.855L62.1216 24.9575V24.9233C62.1558 25.0031 62.1842 25.0885 62.207 25.1797C62.2412 25.2594 62.2583 25.3449 62.2583 25.436C62.2583 25.5614 62.2241 25.6639 62.1558 25.7437C62.0988 25.8234 62.0247 25.8861 61.9336 25.9316C61.8424 25.9772 61.7399 26.0057 61.626 26.0171C61.5234 26.0285 61.4266 26.0342 61.3354 26.0342C60.9595 26.0342 60.6576 25.9943 60.4297 25.9146C60.2132 25.8234 60.0366 25.7038 59.8999 25.5557C59.7632 25.3962 59.6606 25.2082 59.5923 24.9917C59.5353 24.7752 59.484 24.536 59.4385 24.2739L59.3872 23.9663C59.3416 23.8068 59.3132 23.6359 59.3018 23.4536C59.2904 23.3625 59.279 23.3226 59.2676 23.334C59.2676 23.334 59.2619 23.2884 59.2505 23.1973C59.091 23.4821 58.903 23.7897 58.6865 24.1201C58.4814 24.4391 58.2422 24.741 57.9688 25.0259C57.7067 25.2993 57.4219 25.5329 57.1143 25.7266C56.8066 25.9089 56.4762 26 56.123 26C55.6331 26 55.2515 25.8519 54.978 25.5557C54.716 25.2594 54.5223 24.9006 54.397 24.479C54.2716 24.0461 54.1976 23.6017 54.1748 23.146C54.152 22.6789 54.1406 22.2744 54.1406 21.9326C54.1406 20.6338 54.1805 19.3464 54.2603 18.0703C54.3514 16.7943 54.4482 15.5125 54.5508 14.2251C54.5508 14.1909 54.5508 14.1453 54.5508 14.0884C54.5622 14.0314 54.5679 13.9858 54.5679 13.9517C54.5793 13.7922 54.5907 13.644 54.6021 13.5073C54.6134 13.3706 54.6419 13.2396 54.6875 13.1143V13.1313C54.7331 12.9491 54.7957 12.818 54.8755 12.7383C54.9666 12.6585 55.1034 12.6187 55.2856 12.6187C55.4565 12.6187 55.6274 12.6528 55.7983 12.7212C55.9692 12.7782 56.123 12.8636 56.2598 12.9775C56.3965 13.0801 56.5047 13.2054 56.5845 13.3535C56.6756 13.5016 56.7212 13.6668 56.7212 13.8491C56.7212 13.9403 56.7212 14.0485 56.7212 14.1738C56.7212 14.2992 56.7155 14.4074 56.7041 14.4985C56.7041 14.5783 56.6984 14.6808 56.687 14.8062C56.687 14.9201 56.687 15.0169 56.687 15.0967C56.5959 16.1904 56.5275 17.2785 56.4819 18.3608C56.4364 19.4318 56.4136 20.5199 56.4136 21.625C56.4136 21.9326 56.4136 22.2402 56.4136 22.5479C56.425 22.8555 56.4591 23.1631 56.5161 23.4707C56.8921 22.9922 57.2168 22.3826 57.4902 21.6421C57.7637 20.8901 57.9915 20.0983 58.1738 19.2666C58.3675 18.4235 58.5213 17.5918 58.6353 16.7715C58.7606 15.9398 58.8517 15.2049 58.9087 14.5669C58.9087 14.5327 58.9087 14.4928 58.9087 14.4473C58.9201 14.4017 58.9258 14.3618 58.9258 14.3276C58.9372 14.2023 58.9486 14.0827 58.96 13.9688C58.9714 13.8548 59.0112 13.7466 59.0796 13.644C59.0796 13.5415 59.0853 13.4333 59.0967 13.3193C59.1081 13.2054 59.1366 13.1029 59.1821 13.0117C59.2277 12.9092 59.2904 12.8294 59.3701 12.7725C59.4613 12.7155 59.5866 12.687 59.7461 12.687C60.2018 12.687 60.5607 12.8294 60.8228 13.1143C61.0848 13.3877 61.2272 13.7409 61.25 14.1738C61.307 14.265 61.3468 14.3561 61.3696 14.4473C61.4038 14.527 61.4209 14.6182 61.4209 14.7207ZM69.1626 13.4731C69.1626 13.6099 69.1113 13.7238 69.0088 13.8149C68.9176 13.9061 68.8037 13.9858 68.667 14.0542C68.5303 14.1112 68.3879 14.151 68.2397 14.1738C68.103 14.1966 67.9891 14.208 67.8979 14.208C67.7612 14.208 67.6302 14.1966 67.5049 14.1738C67.3796 14.1396 67.2542 14.1055 67.1289 14.0713C67.0036 14.0371 66.884 14.0086 66.77 13.9858C66.6561 13.9517 66.5365 13.9346 66.4111 13.9346C66.2402 13.9346 66.0693 13.9631 65.8984 14.02C65.7275 14.077 65.5737 14.1567 65.437 14.2593C65.3003 14.3618 65.1864 14.4871 65.0952 14.6353C65.0155 14.7834 64.9756 14.9486 64.9756 15.1309C64.9756 15.4043 65.0326 15.6777 65.1465 15.9512C65.2604 16.2132 65.4085 16.481 65.5908 16.7544C65.7845 17.0278 66.001 17.307 66.2402 17.5918C66.4909 17.8652 66.7529 18.1444 67.0264 18.4292C67.3568 18.7938 67.6872 19.1641 68.0176 19.54C68.3594 19.916 68.6613 20.3091 68.9233 20.7192C69.1968 21.1294 69.4189 21.5623 69.5898 22.0181C69.7607 22.4738 69.8462 22.9523 69.8462 23.4536C69.8462 23.8866 69.7721 24.2739 69.624 24.6157C69.4873 24.9575 69.2879 25.248 69.0259 25.4873C68.7752 25.7266 68.4676 25.9089 68.103 26.0342C67.7498 26.1709 67.3625 26.2393 66.9409 26.2393C66.827 26.2393 66.6504 26.2165 66.4111 26.1709C66.1833 26.1253 65.9212 26.0627 65.625 25.9829C65.3288 25.8918 65.0212 25.7949 64.7021 25.6924C64.3945 25.5898 64.1097 25.4816 63.8477 25.3677C63.597 25.2424 63.3862 25.1227 63.2153 25.0088C63.0558 24.8835 62.9761 24.7695 62.9761 24.667C62.9761 24.5303 63.0387 24.3936 63.1641 24.2568C63.2894 24.1087 63.4375 23.9777 63.6084 23.8638C63.7793 23.7384 63.9559 23.6359 64.1382 23.5562C64.3319 23.4764 64.4914 23.4365 64.6167 23.4365C64.7876 23.4365 64.9642 23.4764 65.1465 23.5562C65.3402 23.6359 65.5339 23.7271 65.7275 23.8296C65.944 23.9435 66.1605 24.0461 66.377 24.1372C66.6048 24.2284 66.8384 24.2739 67.0776 24.2739C67.2599 24.2739 67.3625 24.2113 67.3853 24.0859C67.4194 23.9606 67.4365 23.8182 67.4365 23.6587C67.4365 23.2599 67.3682 22.884 67.2314 22.5308C67.0947 22.1662 66.9181 21.813 66.7017 21.4712C66.4852 21.1294 66.2345 20.799 65.9497 20.48C65.6649 20.1496 65.38 19.8249 65.0952 19.5059C64.799 19.1868 64.5085 18.8678 64.2236 18.5488C63.9502 18.2298 63.7052 17.9051 63.4888 17.5747C63.2723 17.2329 63.0957 16.8854 62.959 16.5322C62.8337 16.179 62.771 15.8031 62.771 15.4043C62.771 14.9144 62.8792 14.4757 63.0957 14.0884C63.3122 13.6896 63.5913 13.3478 63.9331 13.063C64.2863 12.7782 64.6794 12.5617 65.1123 12.4136C65.5566 12.2541 66.001 12.1743 66.4453 12.1743C66.5934 12.1743 66.8213 12.2085 67.1289 12.2769C67.4365 12.3338 67.7384 12.4193 68.0347 12.5332C68.3309 12.6471 68.5929 12.7839 68.8208 12.9434C69.0487 13.1029 69.1626 13.2795 69.1626 13.4731Z" fill="#FFD803"/>
</svg>
