<svg width="1512" height="559" viewBox="0 0 1512 559" fill="none" xmlns="http://www.w3.org/2000/svg">
<path d="M1828.83 102.698C1798.46 122.136 1762.26 136.281 1722.6 133.207C1705.03 131.845 1689.14 124.637 1672.84 120.027C1656.25 115.335 1633.52 126.293 1618.51 132.552C1600.03 140.252 1583.86 150.976 1561.88 151.421C1540.54 151.854 1514.76 145.052 1494.54 140.346C1475.31 135.868 1453.87 124.563 1432.75 128.627C1422.04 130.688 1412.6 135.718 1402.2 138.441C1382.47 143.606 1364.24 152.114 1344.62 157.487C1311.85 166.464 1275.06 157.947 1243.48 150.523C1229.72 147.289 1226.2 134.637 1213.03 131.997C1171.88 123.742 1137.73 128.879 1101.13 147.16C1093.67 150.882 1084.87 152.661 1078.05 157.232C1065.38 165.734 1055.41 177.007 1039.98 182.652C991.09 200.536 931.31 194.676 882.708 182.078C877.612 180.757 873.01 179.091 868.118 177.706C842.357 170.414 818.283 175.315 794.927 186.656C766.535 200.444 743.374 220.055 710.331 226.887C693.687 230.328 677.355 229.462 661.018 226.364C640.386 222.451 616.642 216.213 598.075 228.428C585.674 236.587 579.688 249.27 570.14 259.249C557.025 272.954 537.219 283.703 515.17 281.91C485.522 279.499 457.299 271.363 427.699 268.8M427.764 268.406C397.399 287.844 361.193 301.99 321.535 298.916C303.967 297.554 288.083 290.345 271.783 285.735C255.192 281.043 232.458 292.001 217.444 298.26C198.973 305.96 182.799 316.684 160.818 317.13C139.477 317.562 113.695 310.76 93.4781 306.054C74.2443 301.577 52.8064 290.272 31.6854 294.335C20.9735 296.396 11.5334 301.426 1.13641 304.149C-18.591 309.314 -36.8226 317.822 -56.4372 323.195C-89.2085 332.172 -126.004 323.655 -157.585 316.231C-171.343 312.997 -174.865 300.345 -188.028 297.705C-229.179 289.45 -263.33 294.587 -299.936 312.869C-307.389 316.591 -316.194 318.369 -323.008 322.94C-335.683 331.443 -345.654 342.715 -361.084 348.36C-409.972 366.244 -469.752 360.385 -518.354 347.786C-523.449 346.465 -528.052 344.799 -532.943 343.414C-558.705 336.122 -582.778 341.023 -606.134 352.365C-634.527 366.152 -657.687 385.763 -690.73 392.595C-707.375 396.036 -723.706 395.17 -740.044 392.072C-760.676 388.159 -784.42 381.921 -802.987 394.137C-815.387 402.295 -821.374 414.978 -830.922 424.957C-844.036 438.662 -863.843 449.412 -885.892 447.619C-915.54 445.208 -943.763 437.071 -973.363 434.509C-986.477 448.214 -1013.09 456.997 -1035.13 455.204" stroke="#FFD803" stroke-width="205.269" stroke-linecap="round"/>
<path d="M1828.83 102.698C1798.46 122.136 1762.26 136.281 1722.6 133.207C1705.03 131.845 1689.14 124.637 1672.84 120.027C1656.25 115.335 1633.52 126.293 1618.51 132.552C1600.03 140.252 1583.86 150.976 1561.88 151.421C1540.54 151.854 1514.76 145.052 1494.54 140.346C1475.31 135.868 1453.87 124.563 1432.75 128.627C1422.04 130.688 1412.6 135.718 1402.2 138.441C1382.47 143.606 1364.24 152.114 1344.62 157.487C1311.85 166.464 1275.06 157.947 1243.48 150.523C1229.72 147.289 1226.2 134.637 1213.03 131.997C1171.88 123.742 1137.73 128.879 1101.13 147.16C1093.67 150.882 1084.87 152.661 1078.05 157.232C1065.38 165.734 1055.41 177.007 1039.98 182.652C991.09 200.536 931.31 194.676 882.708 182.078C877.612 180.757 873.01 179.091 868.118 177.706C842.357 170.414 818.283 175.315 794.927 186.656C766.535 200.444 743.374 220.055 710.331 226.887C693.687 230.328 677.355 229.462 661.018 226.364C640.386 222.451 616.642 216.213 598.075 228.428C585.674 236.587 579.688 249.27 570.14 259.249C557.025 272.954 537.219 283.703 515.17 281.91C485.522 279.499 457.299 271.363 427.699 268.8M427.764 268.406C397.399 287.844 361.193 301.99 321.535 298.916C303.967 297.554 288.083 290.345 271.783 285.735C255.192 281.043 232.458 292.001 217.444 298.26C198.973 305.96 182.799 316.684 160.818 317.13C139.477 317.562 113.695 310.76 93.4781 306.054C74.2443 301.577 52.8064 290.272 31.6854 294.335C20.9735 296.396 11.5334 301.426 1.13641 304.149C-18.591 309.314 -36.8226 317.822 -56.4372 323.195C-89.2085 332.172 -126.004 323.655 -157.585 316.231C-171.343 312.997 -174.865 300.345 -188.028 297.705C-229.179 289.45 -263.33 294.587 -299.936 312.869C-307.389 316.591 -316.194 318.369 -323.008 322.94C-335.683 331.443 -345.654 342.715 -361.084 348.36C-409.972 366.244 -469.752 360.385 -518.354 347.786C-523.449 346.465 -528.052 344.799 -532.943 343.414C-558.705 336.122 -582.778 341.023 -606.134 352.365C-634.527 366.152 -657.687 385.763 -690.73 392.595C-707.375 396.036 -723.706 395.17 -740.044 392.072C-760.676 388.159 -784.42 381.921 -802.987 394.137C-815.387 402.295 -821.374 414.978 -830.922 424.957C-844.036 438.662 -863.843 449.412 -885.892 447.619C-915.54 445.208 -943.763 437.071 -973.363 434.509C-986.477 448.214 -1013.09 456.997 -1035.13 455.204" stroke="#FEF6E4" stroke-width="205.269" stroke-linecap="round"/>
</svg>
